<svg xmlns="http://www.w3.org/2000/svg" viewBox="0 0 1280 720"><defs><linearGradient id="g" x1="0" x2="1"><stop stop-color="#120904"/><stop offset=".55" stop-color="#3a2414"/><stop offset="1" stop-color="#071120"/></linearGradient><filter id="n"><feTurbulence baseFrequency=".8" numOctaves="2"/><feBlend in="SourceGraphic" mode="multiply"/></filter></defs><rect width="100%" height="100%" fill="url(#g)"/><g opacity=".45"><line x1="0" y1="0" x2="0" y2="720" stroke="#6b4b22"/><line x1="100" y1="0" x2="100" y2="720" stroke="#6b4b22"/><line x1="200" y1="0" x2="200" y2="720" stroke="#6b4b22"/><line x1="300" y1="0" x2="300" y2="720" stroke="#6b4b22"/><line x1="400" y1="0" x2="400" y2="720" stroke="#6b4b22"/><line x1="500" y1="0" x2="500" y2="720" stroke="#6b4b22"/><line x1="600" y1="0" x2="600" y2="720" stroke="#6b4b22"/><line x1="700" y1="0" x2="700" y2="720" stroke="#6b4b22"/><line x1="800" y1="0" x2="800" y2="720" stroke="#6b4b22"/><line x1="900" y1="0" x2="900" y2="720" stroke="#6b4b22"/><line x1="1000" y1="0" x2="1000" y2="720" stroke="#6b4b22"/><line x1="1100" y1="0" x2="1100" y2="720" stroke="#6b4b22"/><line x1="1200" y1="0" x2="1200" y2="720" stroke="#6b4b22"/></g><rect x="35" y="35" width="1210" height="650" rx="24" fill="none" stroke="#d6a84f" stroke-width="6"/><text x="70" y="120" fill="#ffe9b0" font-family="Georgia" font-size="48">ending poster</text><text x="70" y="620" fill="#eac77b" font-family="monospace" font-size="30">Clues: 1847 • △ ○ ✦ ♜ • ☉ ☽ ♃ ♄ ✦ • 10:35 • 7391</text></svg>